<?xml version="1.0" encoding="utf-8"?>
<!-- Generator: Adobe Illustrator 25.2.3, SVG Export Plug-In . SVG Version: 6.00 Build 0)  -->
<svg version="1.1" id="Layer_1" xmlns="http://www.w3.org/2000/svg" xmlns:xlink="http://www.w3.org/1999/xlink" x="0px" y="0px"
	 viewBox="0 0 119.5 43.7" style="enable-background:new 0 0 119.5 43.7;" xml:space="preserve">
<g>
	<path d="M38.2,9.2c0.1-0.8,0.1-1.5,0.1-2.2c0-0.7-0.1-1.1-0.2-1.5C38,5.3,37.8,5.1,37.6,5c-0.8-0.3-1.7-0.1-2.7,0.6
		c-1.1,0.7-2.1,1.8-3.2,3.3c-1.1,1.4-2.3,3.2-3.5,5.4c-1.3,2.2-2.5,4.4-3.6,6.6c-1.1,2.2-2.3,4.6-3.5,7.2c0.2-0.7,0.2-1.2,0.3-1.4
		l0.1-0.4c0.1-0.6,0.4-1.7,0.8-3.3c0.5-2,0.9-3.7,1.2-5c0.3-1.4,0.7-2.9,1-4.5c0.3-1.6,0.6-2.9,0.7-4c0.1-1,0.2-2,0.2-2.9
		c0-0.9-0.1-1.5-0.3-1.8c-0.2-0.3-0.4-0.4-0.6-0.5c-0.6-0.1-1.3,0.1-2.2,0.6c-0.8,0.6-1.8,1.4-2.7,2.5c-1,1.1-2,2.4-3.1,3.9
		c-1.1,1.5-2.2,3.1-3.3,4.9c-1.1,1.8-2.2,3.6-3.3,5.5c-1.1,1.8-2.1,3.7-3.1,5.6c-1,1.9-2,3.7-2.8,5.3c-0.8,1.6-1.6,3.2-2.3,4.6
		c0.4-1.3,1-3,1.7-4.9c0.1-0.3,0.2-0.5,0.2-0.5c0.4-1.1,1.1-3,2-5.7c0.8-2.2,1.3-3.9,1.8-5.2c0.4-1.3,1-2.9,1.8-5
		c0.8-2,1.5-3.9,2.2-5.5c0.7-1.6,1.5-3.1,2.2-4.5c0,0,0,0,0,0c0.1-0.1,0.1-0.2,0.1-0.2c0.1-0.3,0.3-0.5,0.4-0.7c0.3-0.4,0.8-1,1.5-2
		c1-1.3,1.6-2.1,1.8-2.4c0.1-0.2,0.1-0.4,0-0.6C17.2-0.1,17,0,16.7,0.3c-1,1-2.1,2.4-3.2,4.2c-0.4,0.5-0.6,0.8-0.7,1.1
		C12.7,5.8,12.6,6,12.7,6c-0.7,1.4-1.5,2.8-2.2,4.5c-0.7,1.6-1.4,3.4-2.2,5.4c-0.7,2-1.3,3.6-1.8,4.9c-0.4,1.2-1,3-1.7,5.1
		c-0.9,2.8-1.6,4.7-2,5.7c0,0-0.1,0.2-0.2,0.5c-0.6,1.6-1,2.9-1.4,4.1c-0.4,1.1-0.6,2-0.8,2.6c-0.2,0.6-0.3,1-0.3,1.4
		C0,40.5,0,40.7,0,40.8c0,0.1,0.1,0.2,0.1,0.2c0.1,0.1,0.2,0.2,0.4,0.2c0.2,0,0.3-0.1,0.4-0.2c1.3-2.9,3-6.4,5.2-10.6
		s4.4-8.1,6.6-11.8c1.1-1.8,2.1-3.4,3-4.8c1-1.4,1.8-2.6,2.5-3.5c0.7-0.9,1.4-1.7,2-2.4c0.6-0.7,1.1-1.2,1.5-1.6
		c0.4-0.4,0.8-0.6,1.1-0.8c0.3-0.2,0.6-0.3,0.8-0.4c0.2,0,0.4,0,0.5,0c0,0,0.1,0,0.1,0.1c0.1,0.2,0.2,0.5,0.2,1c0,0.4,0,1-0.1,1.7
		c-0.1,0.7-0.2,1.4-0.3,2.1s-0.3,1.5-0.5,2.6c-0.2,1-0.4,1.9-0.5,2.6s-0.4,1.7-0.6,2.8c-0.3,1.1-0.5,1.9-0.6,2.5
		c-0.1,0.6-0.3,1.3-0.6,2.3c-0.4,1.6-0.7,2.7-0.8,3.3l-0.1,0.4c-0.5,2.4-0.8,3.9-0.9,4.4c-0.1,0.5-0.1,0.8,0,0.8
		c0.1,0.1,0.2,0.2,0.4,0.1c0.2,0,0.3-0.1,0.3-0.2c2.5-5.7,4.9-10.6,7.1-14.6c2.2-4,4.1-7,5.8-8.9c1.7-1.9,3-2.7,3.9-2.3
		c0.1,0.1,0.2,0.4,0.3,0.9c0,0.5,0,1.2-0.1,2.1c-0.1,0.9-0.2,1.8-0.3,2.6c-0.1,0.8-0.3,1.9-0.5,3.4c-0.2,1.4-0.4,2.6-0.5,3.4
		c-0.1,0.8-0.3,2-0.6,3.6c-0.3,1.9-0.6,3.4-0.7,4.5c-0.2,1-0.4,2.4-0.7,4.1c-0.3,1.7-0.5,3.1-0.6,4.2c-0.1,1.1-0.2,2.2-0.3,3.5
		c-0.1,1.2-0.2,2.3-0.1,3.2c0,0.9,0.1,1.6,0.2,2.3c0.1,0.2,0.2,0.3,0.4,0.3h0.1c0.1,0,0.2-0.1,0.3-0.2c0.1-0.1,0.1-0.2,0.1-0.3
		C34,42.6,34,41.8,33.9,41c0-0.9,0-1.9,0.2-3.2c0.1-1.3,0.2-2.4,0.4-3.5c0.1-1.1,0.3-2.5,0.6-4.2c0.3-1.7,0.5-3.1,0.6-4.1
		c0.2-1,0.4-2.4,0.7-4.3c0.4-2.1,0.6-3.9,0.9-5.2c0.2-1.4,0.4-2.7,0.6-4.1C38,11.1,38.2,10,38.2,9.2"/>
	<path d="M75.5,20.5c0.1,0.1,0.2,0.1,0.3,0.1c0.1,0,0.1,0,0.2,0c0.2-0.1,0.3-0.4,0.5-0.9c0.1-0.2,0.2-0.4,0.2-0.5
		c0.1-0.1,0.1-0.2,0-0.3c-0.1-0.1-0.1-0.2-0.2-0.2c-0.1,0-0.2,0-0.3,0c-0.1,0-0.2,0.1-0.2,0.2c0,0.1-0.1,0.2-0.1,0.3
		c-0.1,0.1-0.1,0.1-0.1,0.2c-0.2,0.4-0.3,0.7-0.3,0.8C75.4,20.3,75.4,20.4,75.5,20.5"/>
	<path d="M102.5,23.1c-0.1,0-0.2,0-0.3,0.1c-0.7,0.6-1.5,1-2.3,1.4c-0.8,0.4-1.5,0.5-2.1,0.4c-0.5-0.1-0.9-0.4-1.2-0.9
		c-0.2-0.3-0.4-0.7-0.6-1.2c-0.1-0.2-0.1-0.3-0.2-0.4c-0.1-0.1-0.2-0.2-0.3-0.2c-0.2,0-0.4,0.1-0.6,0.3c-0.4,0.5-0.9,1.1-1.5,1.6
		c-0.6,0.6-1.2,1.1-1.9,1.7c-0.7,0.5-1.3,0.9-1.9,1.2c-0.6,0.3-1.1,0.3-1.5,0.2c-0.7-0.3-1-1.5-0.8-3.7c0-0.1,0-0.1,0-0.2
		c0-0.1-0.1-0.1-0.1-0.2c-0.1,0-0.1-0.1-0.2-0.1c-0.1,0-0.1,0-0.2,0c0,0-0.1,0-0.2,0c-0.1,0-0.2,0-0.3,0.1c-0.6,0.6-1.5,1.2-2.7,1.8
		c-1.1,0.6-2.3,1-3.5,1.3c-1.2,0.3-2.2,0.3-3-0.1c-0.9-0.4-1.3-1.3-1.3-2.8c0-0.1,0-0.2-0.1-0.3c-0.1-0.1-0.2-0.1-0.3-0.1
		c0,0-0.1,0-0.1,0c-0.1,0-0.1,0-0.2,0.1c-1.5,1.3-2.8,2.3-4.1,2.9C70,26.7,68.9,27,68,26.9c-0.9-0.1-1.7-0.5-2.3-1.3
		c-0.1-0.1-0.2-0.3-0.2-0.5c-0.1-0.2-0.1-0.4-0.1-0.5c0-0.2,0-0.4,0-0.7c0-0.3,0-0.5,0-0.6c0-0.1,0-0.3,0-0.6c0-0.2-0.1-0.4-0.2-0.6
		s-0.2-0.3-0.3-0.5c-0.2-0.2-0.4-0.4-0.7-0.5c-0.3-0.1-0.5-0.2-0.7-0.2c-0.2,0-0.5-0.1-0.8-0.1c-0.5-0.1-0.8-0.1-1-0.2
		c0.6-0.9,0.8-1.6,0.6-2.1c-0.1-0.4-0.4-0.6-0.9-0.6h0c-0.3,0-0.6,0.1-0.9,0.3c-0.3,0.2-0.5,0.4-0.6,0.7c-0.3,0.6-0.1,1.2,0.5,1.9
		c0,0,0.1,0.1,0.1,0.1c-0.6,0.7-1.3,1.5-2.3,2.4c-0.1,0-0.1,0.1-0.1,0.2c-2.4,2.6-4.4,3.7-6,3.4c-1.2-0.2-2.2-1.2-2.9-3.1
		c-0.1-0.3-0.2-0.4-0.3-0.5c-0.2-0.1-0.4-0.1-0.7,0s-0.9,0.4-1.8,1c-0.4,0.2-0.8,0.4-1,0.6c-0.2,0.1-0.6,0.4-1.1,0.6
		c-0.5,0.3-0.9,0.5-1.3,0.6c-0.3,0.2-0.7,0.3-1.2,0.5c-0.5,0.2-0.8,0.3-1.2,0.4c-0.3,0.1-0.6,0.1-1,0.1c-0.3,0-0.6-0.1-0.8-0.2
		c-0.3-0.2-0.3-0.4-0.3-0.9c0.1-0.6,0.5-1.3,1.2-2.1c0.7-0.8,1.5-1.6,2.4-2.2c0.9-0.7,1.8-1.1,2.6-1.2c1-0.2,1.7,0.1,2.1,0.8
		c0.1,0.1,0.2,0.1,0.3,0.2c0.1,0,0.2,0,0.3,0c0.1-0.1,0.2-0.1,0.2-0.3c0-0.1,0-0.2-0.1-0.3c-0.7-1-1.6-1.4-3-1.1
		c-0.9,0.2-1.9,0.6-2.9,1.3c-1,0.7-1.9,1.6-2.6,2.5c-0.7,0.9-1.1,1.7-1.3,2.4c-0.2,0.8,0.1,1.4,0.6,1.7c0.3,0.2,0.8,0.3,1.3,0.3
		c0.5,0,1-0.1,1.6-0.3c0.6-0.2,1.2-0.4,2-0.8c0.7-0.3,1.3-0.6,1.7-0.9c0.4-0.2,1-0.6,1.8-1c0.9-0.5,1.4-0.8,1.6-0.9l0,0
		c0.1,0.3,0.2,0.5,0.3,0.7c0.1,0.2,0.2,0.5,0.5,0.8s0.5,0.7,0.7,0.9c0.2,0.2,0.5,0.5,0.9,0.7c0.4,0.2,0.8,0.4,1.2,0.5
		c1.9,0.3,4.2-0.9,6.9-3.8c0,0,0-0.1,0.1-0.1c1-0.9,1.7-1.7,2.3-2.5c0.3,0.1,0.8,0.2,1.4,0.3c0.3,0,0.5,0.1,0.7,0.1
		c0.2,0,0.3,0.1,0.5,0.2c0.2,0.1,0.4,0.2,0.5,0.3c0.1,0.1,0.2,0.3,0.2,0.5c0.1,0.2,0.1,0.4,0.1,0.5v0.7c0,0.3,0,0.6,0,0.8
		c0,0.2,0,0.4,0.1,0.7c0.1,0.3,0.2,0.5,0.3,0.7c0.8,1,1.7,1.6,2.8,1.7c0.1,0,0.3,0,0.4,0c1.9,0,4.2-1.1,6.9-3.4
		c0.1,1.3,0.7,2.2,1.7,2.7c0.5,0.2,1.1,0.3,1.7,0.3c1.4,0,2.9-0.4,4.5-1.1c1.4-0.7,2.6-1.3,3.4-2C86.6,26.3,87,27.6,88,28
		c0.2,0.1,0.5,0.1,0.7,0.1c0.4,0,0.9-0.1,1.5-0.4c0.6-0.3,1.1-0.6,1.6-0.9c0.5-0.4,1-0.8,1.5-1.3c0.5-0.5,0.9-0.9,1.3-1.2
		c0.3-0.3,0.6-0.6,0.9-0.9c0.1,0.4,0.3,0.7,0.5,1c0.4,0.7,1,1.1,1.7,1.3c0.2,0,0.3,0,0.5,0c-0.2,0.3-0.4,0.6-0.5,1
		c-0.1,0.4-0.2,0.8,0,1.1c0.1,0.3,0.4,0.7,1.1,0.7c0.4,0,0.9-0.1,1.4-0.3c0.1-0.1,0.3-0.2,0.6-0.3c0.1-0.1,0.2-0.1,0.3-0.2
		c0.5-0.3,0.9-0.6,1.2-0.8c0.1-0.1,0.1-0.2,0.1-0.3c0-0.1,0-0.2-0.1-0.3c-0.1-0.2-0.4-0.2-0.5,0c-0.2,0.2-0.6,0.5-1.1,0.7
		c-0.1,0-0.2,0.1-0.3,0.2c-0.2,0.1-0.4,0.2-0.5,0.3c-0.5,0.2-0.9,0.3-1.2,0.3c-0.3,0-0.4-0.1-0.4-0.2c-0.1-0.2,0-0.4,0.1-0.7
		c0.1-0.3,0.3-0.6,0.5-0.9c0.2-0.2,0.4-0.4,0.6-0.5l0,0c0.4-0.1,0.8-0.3,1.2-0.5c0.5-0.3,0.9-0.5,1.2-0.7s0.6-0.4,0.8-0.6
		c0.1-0.1,0.2-0.2,0.2-0.3c0-0.1,0-0.2-0.1-0.3C102.7,23.1,102.6,23.1,102.5,23.1 M60.8,20.1L60.8,20.1c-0.3-0.4-0.4-0.7-0.3-1
		c0.1-0.1,0.2-0.3,0.3-0.4c0.2-0.1,0.3-0.2,0.4-0.2c0.1,0,0.1,0,0.1,0C61.5,18.9,61.3,19.4,60.8,20.1"/>
	<path d="M119.4,38.7c-0.1-0.1-0.2-0.1-0.3-0.1c-0.1,0-0.2,0-0.3,0.1c-2.4,2.7-4.5,3.9-6.2,3.6c-1.2-0.2-2.2-1.2-2.9-3.1
		c-0.1-0.3-0.2-0.4-0.3-0.5c-0.2-0.1-0.4-0.1-0.7,0c-0.3,0.1-0.9,0.4-1.8,1c-0.4,0.2-0.8,0.4-1,0.6c-0.2,0.1-0.6,0.4-1.1,0.6
		c-0.5,0.3-0.9,0.5-1.3,0.6c-0.3,0.2-0.7,0.3-1.2,0.5c-0.5,0.2-0.8,0.3-1.2,0.4c-0.3,0.1-0.6,0.1-1,0.1c-0.3,0-0.6-0.1-0.8-0.2
		c-0.3-0.2-0.3-0.4-0.3-0.9c0.1-0.6,0.5-1.3,1.2-2.1c0.7-0.8,1.5-1.6,2.4-2.2c0.9-0.7,1.8-1.1,2.6-1.2c1-0.2,1.7,0.1,2.1,0.8
		c0.1,0.1,0.2,0.1,0.3,0.2c0.1,0,0.2,0,0.3,0c0.1-0.1,0.2-0.1,0.2-0.3c0-0.1,0-0.2-0.1-0.3c-0.7-1-1.6-1.4-3-1.1
		c-0.9,0.2-1.9,0.6-2.9,1.3c-1,0.7-1.8,1.5-2.5,2.4c0,0,0,0,0,0c-1.5,1.3-2.8,2.3-4.1,2.9c-1.3,0.6-2.4,0.9-3.3,0.8
		c-0.9-0.1-1.7-0.5-2.3-1.3c-0.1-0.1-0.2-0.3-0.2-0.5s-0.1-0.4-0.1-0.5c0-0.2,0-0.4,0-0.7c0-0.3,0-0.5,0-0.6c0-0.1,0-0.3,0-0.6
		c0-0.2-0.1-0.4-0.2-0.6c-0.1-0.2-0.2-0.3-0.3-0.5c-0.2-0.2-0.4-0.4-0.7-0.5c-0.3-0.1-0.5-0.2-0.7-0.2c-0.2,0-0.5-0.1-0.8-0.1
		c-0.5-0.1-0.8-0.1-1-0.2c0.6-0.9,0.8-1.6,0.6-2.1c-0.1-0.4-0.4-0.6-0.9-0.6h0c-0.3,0-0.6,0.1-0.9,0.3c-0.3,0.2-0.5,0.4-0.6,0.7
		c-0.3,0.6-0.1,1.2,0.5,1.9c0,0,0.1,0.1,0.1,0.1c-0.5,0.7-1.3,1.4-2.2,2.3c-0.1,0-0.2,0-0.2,0.1c-0.7,0.6-1.5,1-2.3,1.4
		c-0.8,0.4-1.5,0.5-2.1,0.4c-0.5-0.1-0.9-0.4-1.2-0.9c-0.2-0.3-0.4-0.7-0.6-1.2C76.1,38.2,76,38,76,38c-0.1-0.1-0.2-0.2-0.3-0.2
		c-0.2,0-0.4,0.1-0.6,0.3c-0.4,0.5-0.9,1.1-1.5,1.6c-0.6,0.6-1.2,1.1-1.9,1.7c-0.7,0.5-1.3,0.9-1.9,1.2c-0.6,0.3-1.1,0.3-1.5,0.2
		c-0.7-0.3-1-1.5-0.8-3.7c0-0.1,0-0.1,0-0.2c0-0.1-0.1-0.1-0.1-0.2c-0.1,0-0.1-0.1-0.2-0.1c0,0-0.1,0-0.1,0c0,0,0,0,0,0
		c-0.1,0-0.2,0-0.3,0.1c-2.4,2.7-4.5,3.9-6.2,3.6c-1.2-0.2-2.2-1.2-2.9-3.1c-0.1-0.3-0.2-0.4-0.3-0.5c-0.2-0.1-0.4-0.1-0.7,0
		c-0.3,0.1-0.9,0.4-1.8,1c-0.4,0.2-0.8,0.4-1,0.6c-0.2,0.1-0.6,0.4-1.1,0.6c-0.5,0.3-0.9,0.5-1.3,0.6c-0.3,0.2-0.7,0.3-1.2,0.5
		c-0.5,0.2-0.8,0.3-1.2,0.4c-0.3,0.1-0.6,0.1-1,0.1c-0.3,0-0.6-0.1-0.8-0.2c-0.3-0.2-0.3-0.4-0.3-0.9c0.1-0.6,0.5-1.3,1.2-2.1
		c0.7-0.8,1.5-1.6,2.4-2.2c0.9-0.7,1.8-1.1,2.6-1.2c1-0.2,1.7,0.1,2.1,0.8c0.1,0.1,0.2,0.1,0.3,0.2c0.1,0,0.2,0,0.3,0
		c0.1-0.1,0.2-0.1,0.2-0.3c0-0.1,0-0.2-0.1-0.3c-0.7-1-1.6-1.4-3-1.1c-0.9,0.2-1.9,0.6-2.9,1.3c-1,0.7-1.9,1.6-2.6,2.5
		c-0.7,0.9-1.1,1.7-1.3,2.4c-0.2,0.8,0.1,1.4,0.6,1.7c0.3,0.2,0.8,0.3,1.3,0.3c0.5,0,1-0.1,1.6-0.3c0.6-0.2,1.2-0.4,2-0.8
		c0.7-0.3,1.3-0.6,1.7-0.9c0.4-0.2,1-0.6,1.8-1c0.9-0.5,1.4-0.8,1.6-0.9l0,0c0.1,0.3,0.2,0.5,0.3,0.7c0.1,0.2,0.2,0.5,0.5,0.8
		s0.5,0.7,0.7,0.9c0.2,0.2,0.5,0.5,0.9,0.7c0.4,0.2,0.8,0.4,1.2,0.5c1.8,0.3,3.8-0.7,6.2-3.1c0,1.9,0.4,3.1,1.4,3.5
		c0.2,0.1,0.5,0.1,0.7,0.1c0.4,0,0.9-0.1,1.5-0.4c0.6-0.3,1.1-0.6,1.6-0.9c0.5-0.4,1-0.8,1.5-1.3c0.5-0.5,0.9-0.9,1.3-1.2
		c0.3-0.3,0.6-0.6,0.9-0.9c0.1,0.4,0.3,0.7,0.5,1c0.4,0.7,1,1.1,1.7,1.3c0.5,0.1,1,0.1,1.5,0s1-0.3,1.5-0.6c0.5-0.3,0.9-0.5,1.2-0.7
		c0.3-0.2,0.5-0.3,0.7-0.5c0.1,0,0.2,0,0.3-0.1c1-1,1.8-1.8,2.4-2.6c0.3,0.1,0.8,0.2,1.4,0.3c0.3,0,0.5,0.1,0.7,0.1
		c0.2,0,0.3,0.1,0.5,0.2c0.2,0.1,0.4,0.2,0.5,0.3c0.1,0.1,0.2,0.3,0.2,0.5c0.1,0.2,0.1,0.4,0.1,0.5v0.7c0,0.3,0,0.6,0,0.8
		c0,0.2,0,0.4,0.1,0.7c0.1,0.3,0.2,0.5,0.3,0.7c0.8,1,1.7,1.6,2.8,1.7c0.1,0,0.3,0,0.4,0c1.7,0,3.6-0.8,5.8-2.5
		c0,0.1-0.1,0.3-0.1,0.4c-0.2,0.8,0.1,1.4,0.6,1.7c0.3,0.2,0.8,0.3,1.3,0.3c0.5,0,1-0.1,1.6-0.3c0.6-0.2,1.2-0.4,2-0.8
		c0.7-0.3,1.3-0.6,1.7-0.9c0.4-0.2,1-0.6,1.8-1c0.9-0.5,1.4-0.8,1.6-0.9l0,0c0.1,0.3,0.2,0.5,0.3,0.7c0.1,0.2,0.2,0.5,0.5,0.8
		c0.2,0.4,0.5,0.7,0.7,0.9c0.2,0.2,0.5,0.5,0.9,0.7c0.4,0.2,0.8,0.4,1.2,0.5c1.9,0.3,4.2-0.9,6.9-3.8c0.1-0.1,0.1-0.2,0.1-0.3
		C119.5,38.9,119.4,38.8,119.4,38.7 M85.1,35.6L85.1,35.6c-0.3-0.3-0.4-0.7-0.3-1c0.1-0.1,0.2-0.3,0.3-0.4c0.2-0.1,0.3-0.2,0.4-0.2
		c0.1,0,0.1,0,0.1,0C85.8,34.5,85.6,34.9,85.1,35.6"/>
</g>
</svg>
