<?xml version="1.0" encoding="utf-8"?>
<!-- Generator: Adobe Illustrator 25.2.3, SVG Export Plug-In . SVG Version: 6.00 Build 0)  -->
<svg version="1.1" id="Layer_1" xmlns="http://www.w3.org/2000/svg" xmlns:xlink="http://www.w3.org/1999/xlink" x="0px" y="0px"
	 viewBox="0 0 266 108" style="enable-background:new 0 0 266 108;" xml:space="preserve">
<style type="text/css">
	.st0{fill:#292321;}
</style>
<g>
	<path class="st0" d="M55.1,58.4c0.1-1.1,0.1-2.2,0.1-3.2c0-1-0.1-1.7-0.3-2.1c-0.2-0.4-0.4-0.7-0.8-0.9c-1.1-0.5-2.4-0.2-4,0.9
		c-1.5,1.1-3.1,2.6-4.6,4.7c-1.6,2.1-3.3,4.7-5.1,7.8c-1.8,3.1-3.5,6.3-5.1,9.5s-3.3,6.7-5,10.4c0.2-1.1,0.4-1.8,0.4-2.1l0.1-0.6
		c0.2-0.9,0.6-2.5,1.2-4.7c0.7-2.9,1.3-5.3,1.8-7.3c0.5-2,0.9-4.1,1.4-6.5c0.5-2.3,0.8-4.2,1-5.8c0.2-1.5,0.3-2.9,0.3-4.1
		s-0.2-2.1-0.5-2.6c-0.2-0.4-0.5-0.6-0.9-0.7c-0.8-0.2-1.9,0.1-3.1,0.9c-1.2,0.8-2.5,2-3.9,3.6c-1.4,1.6-2.9,3.5-4.4,5.6
		c-1.5,2.1-3.1,4.5-4.7,7.1c-1.6,2.6-3.2,5.2-4.7,7.9c-1.5,2.6-3,5.4-4.5,8.1c-1.5,2.8-2.8,5.3-4,7.7c-1.2,2.3-2.3,4.5-3.3,6.7
		c0.6-1.9,1.4-4.3,2.5-7.1C5.1,91.3,5.1,91,5.2,91c0.6-1.5,1.5-4.3,2.9-8.3c1.1-3.2,1.9-5.7,2.6-7.5c0.6-1.8,1.5-4.2,2.6-7.2
		c1.1-2.9,2.2-5.6,3.2-7.9c1.1-2.4,2.1-4.5,3.2-6.4c0,0,0,0,0,0c0.1-0.1,0.2-0.2,0.2-0.4c0.2-0.4,0.4-0.7,0.6-1
		c0.4-0.5,1.1-1.5,2.2-2.8c1.5-1.9,2.4-3.1,2.6-3.5c0.2-0.4,0.2-0.6,0-0.9c-0.3-0.3-0.7-0.2-1.1,0.3c-1.5,1.5-3,3.5-4.5,6.1
		c-0.6,0.7-0.9,1.2-1.1,1.5c-0.2,0.3-0.2,0.5-0.2,0.6c-1,1.9-2.1,4.1-3.1,6.4c-1,2.3-2.1,4.9-3.2,7.8c-1.1,2.9-1.9,5.2-2.5,7
		c-0.6,1.8-1.5,4.3-2.5,7.4c-1.4,4-2.3,6.7-2.9,8.2c0,0-0.1,0.3-0.2,0.7c-0.8,2.3-1.5,4.2-2.1,5.9c-0.5,1.6-0.9,2.9-1.2,3.7
		c-0.2,0.8-0.4,1.5-0.5,2C0,103.4,0,103.7,0,103.9c0,0.1,0.1,0.2,0.2,0.4c0.1,0.2,0.3,0.3,0.6,0.3c0.3,0,0.4-0.1,0.6-0.4
		c1.9-4.2,4.4-9.3,7.5-15.3c3.2-6,6.3-11.7,9.6-17c1.5-2.5,3-4.8,4.4-6.9c1.4-2.1,2.6-3.8,3.6-5.1c1-1.3,2-2.5,2.8-3.5
		c0.9-1,1.6-1.7,2.2-2.3c0.6-0.5,1.1-0.9,1.6-1.2c0.5-0.3,0.9-0.5,1.1-0.5c0.3-0.1,0.5-0.1,0.7,0c0,0,0.1,0,0.1,0.1
		c0.2,0.3,0.3,0.8,0.3,1.4c0,0.6,0,1.5-0.1,2.5c-0.1,1-0.2,2-0.4,3c-0.1,1-0.4,2.2-0.7,3.7c-0.3,1.5-0.6,2.7-0.8,3.8
		c-0.2,1.1-0.5,2.4-0.9,4c-0.4,1.6-0.7,2.8-0.9,3.6c-0.2,0.8-0.5,1.9-0.8,3.3c-0.6,2.3-0.9,3.9-1.1,4.7l-0.1,0.6
		c-0.7,3.5-1.1,5.6-1.2,6.3c-0.1,0.7-0.1,1.1,0.1,1.2c0.1,0.2,0.3,0.2,0.5,0.2c0.2,0,0.4-0.1,0.5-0.3c3.6-8.3,7-15.3,10.2-21.1
		c3.2-5.8,6-10.1,8.4-12.8c2.4-2.8,4.3-3.9,5.7-3.3c0.2,0.2,0.3,0.6,0.4,1.3c0.1,0.7,0,1.7-0.1,3c-0.1,1.3-0.3,2.6-0.4,3.8
		c-0.1,1.2-0.4,2.8-0.7,4.9c-0.3,2.1-0.6,3.7-0.8,4.9c-0.2,1.2-0.5,2.9-0.9,5.1c-0.5,2.8-0.8,5-1.1,6.4c-0.2,1.5-0.6,3.5-0.9,6
		c-0.4,2.5-0.7,4.5-0.8,6c-0.2,1.5-0.3,3.2-0.5,5c-0.2,1.8-0.2,3.3-0.2,4.6c0,1.3,0.1,2.4,0.3,3.3c0.1,0.3,0.3,0.5,0.6,0.5h0.1
		c0.2,0,0.3-0.1,0.4-0.3c0.1-0.1,0.1-0.3,0.1-0.5c-0.2-0.8-0.3-1.9-0.3-3.2c0-1.3,0-2.8,0.2-4.6c0.2-1.8,0.3-3.5,0.5-5
		c0.2-1.5,0.4-3.5,0.8-6c0.4-2.5,0.7-4.4,0.9-5.8c0.2-1.4,0.6-3.5,1-6.2c0.5-3,0.9-5.6,1.3-7.5c0.3-2,0.6-3.9,0.9-5.9
		C54.9,61,55,59.5,55.1,58.4"/>
	<path class="st0" d="M108.9,74.5c0.1,0.1,0.2,0.2,0.4,0.2c0.1,0,0.1,0,0.2-0.1c0.3-0.1,0.5-0.5,0.7-1.3c0.1-0.3,0.2-0.6,0.3-0.7
		c0.1-0.1,0.1-0.3,0-0.5c-0.1-0.2-0.2-0.3-0.3-0.3c-0.2-0.1-0.3-0.1-0.5,0c-0.1,0.1-0.2,0.2-0.3,0.3c-0.1,0.1-0.1,0.2-0.2,0.4
		c-0.1,0.1-0.1,0.2-0.1,0.3c-0.2,0.6-0.4,1-0.4,1.2C108.7,74.3,108.8,74.5,108.9,74.5"/>
	<path class="st0" d="M147.9,78.3c-0.2,0-0.3,0-0.5,0.1c-1,0.8-2.1,1.5-3.3,2c-1.1,0.5-2.1,0.7-3,0.5c-0.7-0.1-1.3-0.6-1.7-1.3
		c-0.3-0.5-0.6-1.1-0.8-1.7c-0.1-0.3-0.2-0.5-0.3-0.6c-0.1-0.1-0.2-0.2-0.4-0.3c-0.3,0-0.5,0.1-0.8,0.4c-0.6,0.7-1.3,1.5-2.2,2.4
		c-0.8,0.8-1.7,1.6-2.7,2.4c-0.9,0.8-1.9,1.3-2.8,1.8c-0.9,0.4-1.6,0.5-2.2,0.3c-1.1-0.4-1.5-2.2-1.2-5.4c0-0.1,0-0.2,0-0.3
		c0-0.1-0.1-0.2-0.2-0.2c-0.1-0.1-0.2-0.1-0.3-0.1c-0.1,0-0.2,0-0.2,0c-0.1,0-0.1,0-0.2,0c-0.2,0-0.3,0.1-0.4,0.2
		c-0.9,0.9-2.2,1.8-3.9,2.6c-1.7,0.9-3.3,1.5-5.1,1.9c-1.7,0.4-3.2,0.4-4.4-0.1c-1.3-0.6-1.9-1.9-1.8-4c0-0.2-0.1-0.3-0.2-0.4
		c-0.1-0.1-0.2-0.2-0.4-0.2c-0.1,0-0.1,0-0.2,0c-0.1,0-0.2,0.1-0.3,0.1c-2.1,1.9-4.1,3.3-5.9,4.2c-1.8,0.9-3.4,1.3-4.8,1.2
		c-1.3-0.1-2.4-0.8-3.3-1.9c-0.1-0.2-0.3-0.4-0.3-0.7c-0.1-0.3-0.1-0.6-0.1-0.8c0-0.2,0-0.5,0-1c0-0.4,0-0.7,0-0.9s0-0.5-0.1-0.8
		c0-0.3-0.1-0.6-0.2-0.9c-0.1-0.2-0.3-0.5-0.5-0.7c-0.3-0.3-0.6-0.5-1-0.7c-0.4-0.2-0.7-0.3-1-0.4c-0.3-0.1-0.7-0.1-1.2-0.2
		c-0.7-0.1-1.2-0.2-1.5-0.3c0.9-1.3,1.2-2.3,0.9-3.1c-0.2-0.6-0.6-0.8-1.3-0.9h0c-0.5,0-0.9,0.1-1.3,0.4c-0.4,0.3-0.7,0.6-0.9,1.1
		c-0.4,0.9-0.2,1.8,0.7,2.7C87,74.9,87,75,87,75c-0.8,1-1.9,2.2-3.3,3.4c-0.1,0.1-0.1,0.1-0.2,0.2c-3.4,3.7-6.3,5.4-8.7,5
		c-1.7-0.3-3.1-1.8-4.2-4.5c-0.2-0.4-0.3-0.6-0.4-0.7c-0.3-0.2-0.6-0.2-1,0c-0.4,0.2-1.3,0.6-2.6,1.4c-0.6,0.3-1.1,0.6-1.5,0.8
		c-0.4,0.2-0.9,0.5-1.6,0.9c-0.7,0.4-1.3,0.7-1.8,0.9c-0.5,0.2-1.1,0.5-1.7,0.7c-0.7,0.3-1.2,0.4-1.7,0.5c-0.5,0.1-0.9,0.1-1.4,0.1
		c-0.5,0-0.8-0.1-1.1-0.3c-0.4-0.2-0.5-0.6-0.4-1.2c0.2-0.9,0.7-1.9,1.7-3.1c0.9-1.2,2.1-2.3,3.4-3.2c1.4-1,2.6-1.5,3.7-1.8
		c1.4-0.3,2.4,0.1,3.1,1.1c0.1,0.1,0.2,0.2,0.4,0.2c0.2,0,0.3,0,0.5-0.1c0.1-0.1,0.2-0.2,0.3-0.4c0-0.2,0-0.3-0.1-0.5
		c-0.9-1.5-2.4-2-4.3-1.6c-1.3,0.2-2.7,0.9-4.2,1.9c-1.5,1.1-2.7,2.2-3.8,3.5c-1,1.3-1.6,2.5-1.8,3.5c-0.2,1.1,0.1,2,0.9,2.5
		c0.5,0.3,1.1,0.5,1.8,0.5c0.7,0,1.5-0.1,2.3-0.4c0.9-0.2,1.8-0.6,2.8-1.1c1-0.5,1.9-0.9,2.5-1.3c0.6-0.3,1.5-0.8,2.6-1.4
		c1.2-0.7,2-1.2,2.4-1.3l0,0c0.2,0.4,0.3,0.7,0.4,1c0.1,0.3,0.4,0.7,0.7,1.2c0.3,0.5,0.7,1,1,1.3c0.3,0.4,0.8,0.7,1.3,1
		c0.5,0.3,1.1,0.6,1.7,0.7c2.8,0.5,6.1-1.3,10-5.5c0,0,0.1-0.1,0.1-0.1c1.4-1.3,2.5-2.5,3.3-3.5c0.4,0.2,1.1,0.3,2.1,0.5
		c0.4,0.1,0.8,0.1,1,0.2c0.2,0,0.5,0.1,0.8,0.3c0.3,0.1,0.5,0.3,0.7,0.5c0.2,0.2,0.3,0.4,0.4,0.7c0.1,0.3,0.1,0.5,0.1,0.7v1
		c0,0.5,0,0.9,0,1.1c0,0.3,0.1,0.6,0.2,1c0.1,0.4,0.3,0.8,0.5,1c1.1,1.5,2.5,2.3,4.1,2.4c0.2,0,0.4,0,0.6,0c2.8,0,6.1-1.6,10-4.9
		c0.2,1.9,1,3.2,2.5,3.9c0.7,0.3,1.5,0.5,2.5,0.5c1.9,0,4.1-0.6,6.5-1.7c2.1-0.9,3.7-1.9,5-3c-0.2,3.1,0.5,5,2,5.5
		c0.3,0.1,0.7,0.2,1,0.2c0.6,0,1.4-0.2,2.2-0.6c0.8-0.4,1.6-0.8,2.3-1.3c0.7-0.5,1.4-1.1,2.2-1.8c0.8-0.7,1.4-1.3,1.8-1.8
		c0.4-0.5,0.9-0.9,1.3-1.4c0.2,0.5,0.5,1,0.7,1.5c0.6,1,1.4,1.6,2.5,1.8c0.2,0,0.5,0.1,0.7,0.1c-0.3,0.4-0.6,0.9-0.7,1.4
		c-0.2,0.6-0.2,1.2,0,1.6c0.2,0.4,0.6,0.9,1.6,0.9c0.6,0,1.2-0.2,2.1-0.5c0.2-0.1,0.5-0.2,0.9-0.4c0.2-0.1,0.3-0.2,0.4-0.2
		c0.8-0.4,1.3-0.8,1.7-1.2c0.1-0.1,0.2-0.2,0.2-0.4c0-0.1,0-0.3-0.1-0.4c-0.2-0.2-0.5-0.2-0.8,0c-0.3,0.3-0.9,0.7-1.5,1.1
		c-0.1,0-0.2,0.1-0.4,0.2c-0.3,0.2-0.6,0.3-0.7,0.4c-0.7,0.3-1.3,0.4-1.7,0.4c-0.5,0-0.6-0.2-0.6-0.3c-0.1-0.2-0.1-0.6,0.1-1
		c0.2-0.4,0.4-0.9,0.7-1.2c0.3-0.4,0.6-0.6,0.8-0.7l0,0c0.6-0.2,1.2-0.4,1.8-0.7c0.7-0.4,1.3-0.7,1.7-1s0.8-0.6,1.2-0.9
		c0.1-0.1,0.2-0.2,0.2-0.4c0-0.2,0-0.3-0.1-0.4C148.2,78.4,148,78.3,147.9,78.3 M87.7,74L87.7,74c-0.5-0.5-0.6-1-0.4-1.4
		c0.1-0.2,0.3-0.4,0.5-0.5c0.2-0.1,0.4-0.2,0.6-0.2c0.1,0,0.2,0,0.2,0.1C88.7,72.3,88.4,73,87.7,74"/>
	<path class="st0" d="M265.8,78.4c-0.1-0.1-0.3-0.2-0.4-0.2c-0.2,0-0.3,0.1-0.4,0.2c-3.5,3.8-6.5,5.6-8.9,5.2
		c-1.7-0.3-3.1-1.8-4.2-4.5c-0.2-0.4-0.3-0.6-0.4-0.7c-0.3-0.2-0.6-0.2-1,0c-0.4,0.2-1.3,0.6-2.6,1.4c-0.6,0.3-1.1,0.6-1.5,0.8
		c-0.4,0.2-0.9,0.5-1.6,0.9c-0.7,0.4-1.3,0.7-1.8,0.9c-0.5,0.2-1.1,0.5-1.7,0.7c-0.7,0.3-1.2,0.4-1.7,0.5c-0.5,0.1-0.9,0.1-1.4,0.1
		c-0.5,0-0.8-0.1-1.1-0.3c-0.4-0.2-0.5-0.6-0.4-1.2c0.2-0.9,0.7-1.9,1.7-3.1c0.9-1.2,2.1-2.3,3.4-3.2c1.4-1,2.6-1.5,3.7-1.8
		c1.4-0.3,2.4,0.1,3.1,1.1c0.1,0.1,0.2,0.2,0.4,0.2c0.2,0,0.3,0,0.5-0.1c0.1-0.1,0.2-0.2,0.3-0.4c0-0.2,0-0.3-0.1-0.5
		c-0.9-1.5-2.4-2-4.3-1.6c-1.3,0.2-2.7,0.9-4.2,1.9c-1.4,1-2.7,2.2-3.7,3.4c0,0,0,0,0,0c-2.1,1.9-4.1,3.3-5.9,4.2
		c-1.8,0.9-3.4,1.3-4.8,1.2c-1.3-0.1-2.4-0.8-3.3-1.9c-0.1-0.2-0.3-0.4-0.3-0.7c-0.1-0.3-0.1-0.6-0.1-0.8c0-0.2,0-0.5,0-1
		c0-0.4,0-0.7,0-0.9c0-0.2,0-0.5-0.1-0.8c0-0.3-0.1-0.6-0.2-0.9c-0.1-0.2-0.3-0.5-0.5-0.7c-0.3-0.3-0.6-0.5-1-0.7
		c-0.4-0.2-0.7-0.3-1-0.4s-0.7-0.1-1.2-0.2c-0.7-0.1-1.2-0.2-1.5-0.3c0.9-1.3,1.2-2.3,0.9-3.1c-0.2-0.6-0.6-0.8-1.3-0.9h0
		c-0.5,0-0.9,0.1-1.3,0.4c-0.4,0.3-0.7,0.6-0.9,1.1c-0.4,0.9-0.2,1.8,0.7,2.7c0.1,0.1,0.1,0.1,0.1,0.1c-0.8,1-1.8,2.1-3.1,3.3
		c-0.1,0-0.2,0.1-0.3,0.1c-1,0.8-2.1,1.5-3.3,2c-1.1,0.5-2.1,0.7-3,0.5c-0.7-0.1-1.3-0.6-1.7-1.3c-0.3-0.5-0.6-1.1-0.8-1.7
		c-0.1-0.3-0.2-0.5-0.3-0.6c-0.1-0.1-0.2-0.2-0.4-0.3c-0.3,0-0.5,0.1-0.8,0.4c-0.6,0.7-1.3,1.5-2.2,2.4c-0.8,0.8-1.7,1.6-2.7,2.4
		c-0.9,0.8-1.9,1.3-2.8,1.8c-0.9,0.4-1.6,0.5-2.2,0.3c-1.1-0.4-1.5-2.2-1.2-5.4c0-0.1,0-0.2,0-0.3c0-0.1-0.1-0.2-0.2-0.2
		c-0.1-0.1-0.2-0.1-0.3-0.1c0,0-0.1,0-0.1,0c0,0,0,0,0,0c-0.2,0-0.3,0.1-0.4,0.2c-3.5,3.8-6.5,5.6-8.9,5.2c-1.7-0.3-3.1-1.8-4.2-4.5
		c-0.2-0.4-0.3-0.6-0.4-0.7c-0.3-0.2-0.6-0.2-1,0c-0.4,0.2-1.3,0.6-2.6,1.4c-0.6,0.3-1.1,0.6-1.5,0.8c-0.4,0.2-0.9,0.5-1.6,0.9
		c-0.7,0.4-1.3,0.7-1.8,0.9c-0.5,0.2-1.1,0.5-1.7,0.7c-0.7,0.3-1.2,0.4-1.7,0.5c-0.5,0.1-0.9,0.1-1.4,0.1c-0.5,0-0.8-0.1-1.1-0.3
		c-0.4-0.2-0.5-0.6-0.4-1.2c0.2-0.9,0.7-1.9,1.7-3.1c0.9-1.2,2.1-2.3,3.4-3.2c1.4-1,2.6-1.5,3.7-1.8c1.4-0.3,2.4,0.1,3.1,1.1
		c0.1,0.1,0.2,0.2,0.4,0.2c0.2,0,0.3,0,0.5-0.1c0.1-0.1,0.2-0.2,0.3-0.4c0-0.2,0-0.3-0.1-0.5c-0.9-1.5-2.4-2-4.3-1.6
		c-1.3,0.2-2.7,0.9-4.2,1.9c-1.5,1.1-2.7,2.2-3.8,3.5c-1,1.3-1.6,2.5-1.8,3.5c-0.2,1.1,0.1,2,0.9,2.5c0.5,0.3,1.1,0.5,1.8,0.5
		c0.7,0,1.5-0.1,2.3-0.4c0.9-0.2,1.8-0.6,2.8-1.1c1-0.5,1.9-0.9,2.5-1.3c0.6-0.3,1.5-0.8,2.5-1.4c1.2-0.7,2-1.2,2.4-1.3l0,0
		c0.2,0.4,0.3,0.7,0.4,1c0.1,0.3,0.4,0.7,0.7,1.2c0.3,0.5,0.7,1,1,1.3c0.3,0.4,0.8,0.7,1.3,1c0.5,0.3,1.1,0.6,1.7,0.7
		c2.5,0.5,5.5-1,8.9-4.4c-0.1,2.8,0.6,4.5,2,5c0.3,0.1,0.7,0.2,1,0.2c0.6,0,1.4-0.2,2.2-0.6c0.8-0.4,1.6-0.8,2.3-1.3
		c0.7-0.5,1.4-1.1,2.2-1.8c0.8-0.7,1.4-1.3,1.8-1.8c0.4-0.5,0.9-0.9,1.3-1.4c0.2,0.5,0.4,1,0.7,1.5c0.6,1,1.4,1.6,2.5,1.8
		c0.7,0.1,1.4,0.1,2.1-0.1c0.8-0.2,1.5-0.4,2.2-0.8c0.7-0.4,1.3-0.7,1.7-1c0.4-0.2,0.7-0.5,1-0.7c0.1,0,0.3,0,0.4-0.1
		c1.5-1.4,2.6-2.6,3.5-3.7c0.4,0.2,1.1,0.3,2.1,0.5c0.4,0.1,0.8,0.1,1,0.2c0.2,0,0.5,0.1,0.8,0.3c0.3,0.1,0.5,0.3,0.7,0.5
		c0.2,0.2,0.3,0.4,0.4,0.7c0.1,0.3,0.1,0.5,0.1,0.7v1c0,0.5,0,0.9,0,1.1c0,0.3,0.1,0.6,0.2,1c0.1,0.4,0.3,0.8,0.5,1
		c1.1,1.5,2.5,2.3,4.1,2.4c0.2,0,0.4,0,0.6,0c2.4,0,5.2-1.2,8.4-3.6c-0.1,0.2-0.1,0.4-0.2,0.6c-0.2,1.1,0.1,2,0.9,2.5
		c0.5,0.3,1.1,0.5,1.8,0.5c0.7,0,1.5-0.1,2.3-0.4c0.9-0.2,1.8-0.6,2.8-1.1c1-0.5,1.9-0.9,2.5-1.3c0.6-0.3,1.5-0.8,2.6-1.4
		c1.2-0.7,2-1.2,2.4-1.3l0,0c0.2,0.4,0.3,0.7,0.4,1c0.1,0.3,0.4,0.7,0.7,1.2c0.3,0.5,0.7,1,1,1.3c0.3,0.4,0.8,0.7,1.3,1
		c0.5,0.3,1.1,0.6,1.7,0.7c2.8,0.5,6.1-1.3,10-5.5c0.1-0.1,0.2-0.3,0.2-0.4C266,78.7,265.9,78.5,265.8,78.4 M216.4,74L216.4,74
		c-0.5-0.5-0.6-1-0.4-1.4c0.1-0.2,0.3-0.4,0.5-0.5c0.2-0.1,0.4-0.2,0.6-0.2c0.1,0,0.2,0,0.2,0.1C217.3,72.3,217,73,216.4,74"/>
	<path class="st0" d="M151.4,0.8c0-0.4-0.4-0.8-0.8-0.8c0,0-0.1,0-0.2,0c-0.2,0-5.8,1.2-10.4,6.1c-0.2,0.2-0.3,0.4-0.5,0.6L139.2,7
		L139,7.3L138.8,7l-0.2-0.3c-2.3-4.2-4.8-6.3-4.9-6.3c-0.1-0.1-0.3-0.2-0.5-0.2c-0.2,0-0.4,0.1-0.5,0.2c-0.1,0.1-2.4,2.1-4.6,6.2
		l-0.2,0.3l-0.2,0.3l-0.2-0.3l-0.2-0.3c-0.1-0.2-0.3-0.3-0.4-0.5c-4.6-4.9-10.2-6.1-10.4-6.1c-0.1,0-0.1,0-0.2,0
		c-0.2,0-0.4,0.1-0.6,0.2c-0.2,0.1-0.2,0.4-0.2,0.6v31.1v0.3l-0.3-0.1l-0.3-0.1c-0.7-0.2-1.4-0.2-2-0.2c-5,0-9,4.1-9,9.2
		c0,5.1,4.1,9.2,9,9.2c1.5,0,2.9-0.4,4.2-1.1l0-14.2v-0.5l0.4,0.3l0.4,0.3c5.6,3.6,24.5,15.4,33.9,15.4c5.9,0,10.6-4.8,10.6-10.8
		c0-5.8-4.7-10.6-10.4-10.8l-0.2,0l-0.3,0v-0.3V0.8z M115.4,33.9v14.4v0.2l-0.2,0.1l-0.2,0.1c-0.7,0.2-1.5,0.4-2.3,0.4
		c-4.3,0-7.7-3.5-7.7-7.8c0-4.3,3.5-7.8,7.7-7.8c0.8,0,1.6,0.1,2.3,0.4l0.2,0.1l0.2,0.1V33.9z M128.8,8.4l0.1-0.1
		c1.4-2.8,2.9-4.8,3.9-5.9l0.2-0.2l0.2-0.2l0.2,0.2l0.2,0.2c0.9,0.9,2.6,3,4.2,6l0.1,0.1l0.1,0.1l-0.1,0.1L137.7,9
		c-1.7,2.5-3,5.3-3.8,8.4l-0.2,0.9l-0.2,0.9l-0.2-0.9l-0.2-0.9c-0.9-3.2-2.2-6.1-3.9-8.6l-0.1-0.1l-0.1-0.1L128.8,8.4z M127.7,11.2
		l0.2-0.5l0.2-0.5l0.3,0.5l0.3,0.5c2.7,4.4,4,10,4,16.4v1.3v0.3h-0.3h-6.5h-0.3v-0.3v-5.6C125.6,19,126.3,15,127.7,11.2 M124,36.8
		v0.5l-0.4-0.2l-0.4-0.2c-3.5-2.1-5.7-3.6-5.9-3.7l-0.2-0.1l-0.1-0.1v-0.1l0-30.6V1.8l0.3,0.1l0.3,0.1c1.7,0.6,5.1,2.1,8,5.2
		c0.4,0.4,0.7,0.8,1.1,1.3l0.1,0.1l0.1,0.1l-0.1,0.1L126.8,9c-1.9,4.3-2.8,9.1-2.8,14.3V36.8z M141.2,31v14.9v0.4l-0.4-0.2l-0.4-0.2
		c-1.9-0.8-3.9-1.7-6-2.8l-0.1-0.1l-0.1-0.1v-0.2v-8.3c0-0.4-0.4-0.8-0.8-0.8c-0.4,0-0.8,0.4-0.8,0.8v7.2v0.4l-0.4-0.2l-0.4-0.2
		c-1.9-1-3.9-2.2-6-3.4l-0.1-0.1l-0.1-0.1v-0.1V31v-0.3h0.3h15.1h0.3V31z M141.2,28.9v0.3h-0.3h-6.5h-0.3v-0.3v-1.3
		c0-6.4,1.3-11.9,3.9-16.3l0.3-0.5l0.3-0.5l0.2,0.5l0.2,0.5c1.4,3.7,2.2,7.8,2.2,12.1V28.9z M149.8,2.2v46.4v0.3l-0.3-0.1l-0.3-0.1
		c-1.7-0.3-3.8-0.9-6.1-1.8l-0.2-0.1l-0.2-0.1v-0.2V23.4c0-5.2-1-10-2.9-14.3L139.8,9l-0.1-0.1l0.1-0.1l0.1-0.1
		c0.4-0.5,0.8-1,1.2-1.4c2.9-3.1,6.2-4.5,8-5.2l0.3-0.1l0.3-0.1V2.2z M151.6,30.2l0.3,0c5,0.1,9.1,4.4,9.1,9.4
		c0,5.1-4.1,9.3-9.1,9.4l-0.3,0l-0.3,0v-0.3V30.4v-0.3L151.6,30.2z"/>
</g>
</svg>
